<svg xmlns="http://www.w3.org/2000/svg" width="2500" height="519" viewBox="0 0 541.863 112.523"><path d="M42.715 80.075c8.676 14.225 24.588 23.77 42.297 23.77 26.166 0 40.57-22.58 40.57-22.58l1.854 6.015c-12.114 15.755-33.755 25.246-57.967 25.246-27.876 0-51.917-13.298-62.98-32.475C2.325 72.826 0 64.758 0 56.26 0 25.188 31.1 0 69.468 0c27.1 0 48.937 11.612 60.395 28.44L84.375 55.68l25.96-39.862c-7.427-4.67-16.54-9.045-25.96-9.045-26.632 0-48.567 22.224-48.567 48.855 0 8.923 2.534 17.307 6.907 24.448zm121.798-.016a18.41 18.41 0 0 0-.204 2.745 18.31 18.31 0 0 0 18.306 18.306 18.31 18.31 0 0 0 18.305-18.306 18.5 18.5 0 0 0-.205-2.755c-1.324-8.797-8.923-15.55-18.1-15.55s-16.777 6.753-18.1 15.56zm67.925-.01l9.098 30.646h-31.914L203.347 89.7c-4.202 12.092-18.383 20.985-35.23 20.985-20.156 0-36.494-12.73-36.494-28.436a23.51 23.51 0 0 1 .106-2.21c1.434-14.66 17.177-26.226 36.388-26.226 10.904 0 20.69 3.726 27.378 9.633l-8.693-29.064h-36.628s6.094-3.655 33.12-13.488 35.59 13.488 35.59 13.488l13.555 45.657zm102.037 0v30.646h-32.838V43.363a8.971 8.971 0 0 0-17.332-3.257v70.59h-32.23V34.392H233.28s26.148-15.84 35.215-15.84c8.593 0 14.953 6.602 15.748 15.012 12.646-6.82 25.186-15.012 33.814-15.012a16.43 16.43 0 0 1 16.418 15.961V80.05zm50.587 0l4.57 15.105c.088 6.474 5.408 11.653 11.938 11.653 6.676 0 12.086-5.4 12.086-12.085a12.13 12.13 0 0 0-.08-1.396l-17.528-59.904c-.672-6.042-5.793-10.74-12.014-10.74-6.158 0-12.03 5.754-12.78 11.708l13.807 45.658zm52.26.006c-6.22 18.857-23.98 32.47-44.922 32.47s-38.705-13.61-44.926-32.475a47.2 47.2 0 0 1-2.369-14.817c0-26.12 21.174-47.29 47.295-47.29s47.293 21.172 47.293 47.29c0 5.177-.832 10.16-2.37 14.823zm54.37-.006v30.646h-32.23V34.392H441.44s25.375-15.84 34.443-15.84c8.594 0 14.953 6.602 15.75 15.012 12.646-6.82 25.184-15.012 33.812-15.012 8.916 0 16.172 7.104 16.418 15.96v76.183h-32.838V43.363a8.971 8.971 0 0 0-17.332-3.257V80.05z" fill="#cc2229"/></svg>