<?xml version="1.0" encoding="utf-8"?>
<!-- Generator: Adobe Illustrator 23.0.0, SVG Export Plug-In . SVG Version: 6.00 Build 0)  -->
<svg version="1.1" id="Calque_1" xmlns="http://www.w3.org/2000/svg" xmlns:xlink="http://www.w3.org/1999/xlink" x="0px" y="0px"
	 viewBox="0 0 2500 519" style="enable-background:new 0 0 2500 519;" xml:space="preserve">
<style type="text/css">
	.st0{fill:#00FF06;}
</style>
<path class="st0" d="M197.4,369.3c40,65.6,113.4,109.6,195.1,109.6c120.7,0,187.1-104.1,187.1-104.1l8.6,27.7
	C532.3,475.2,432.5,519,320.8,519c-128.6,0-239.5-61.3-290.5-149.8C11.1,335.9,0.4,298.7,0.4,259.5C0.4,116.2,143.8,0,320.8,0
	c125,0,225.7,53.6,278.6,131.2L389.5,256.8L509.3,73C475,51.4,433,31.2,389.5,31.2c-122.8,0-224,102.5-224,225.3
	C165.5,297.7,177.2,336.4,197.4,369.3L197.4,369.3z M759.2,369.3c-0.6,4.2-0.9,8.4-0.9,12.7c0,46.6,37.8,84.4,84.4,84.4
	c46.6,0,84.4-37.8,84.4-84.4c0-4.3-0.3-8.5-0.9-12.7c-6.1-40.6-41.2-71.7-83.5-71.7C800.3,297.5,765.3,328.6,759.2,369.3
	L759.2,369.3z M1072.5,369.2l42,141.4H967.2l-28.9-96.8c-19.4,55.8-84.8,96.8-162.5,96.8c-93,0-168.3-58.7-168.3-131.2
	c0-3.4,0.2-6.8,0.5-10.2c6.6-67.6,79.2-121,167.8-121c50.3,0,95.4,17.2,126.3,44.4l-40.1-134H693c0,0,28.1-16.9,152.8-62.2
	s164.2,62.2,164.2,62.2L1072.5,369.2L1072.5,369.2z M1543.1,369.2v141.4h-151.5V200c0-22.9-18.5-41.4-41.4-41.4
	c-17.1,0-32.4,10.5-38.6,26.4v325.6H1163v-352h-86.7c0,0,120.6-73.1,162.4-73.1c39.6,0,69,30.5,72.6,69.2
	c58.3-31.5,116.2-69.2,156-69.2c41,0,74.6,32.6,75.7,73.6L1543.1,369.2L1543.1,369.2z M1776.4,369.2l21.1,69.7
	c0.4,29.9,24.9,53.7,55.1,53.7c30.8,0,55.7-24.9,55.7-55.7c0-2.2-0.1-4.3-0.4-6.4l-80.8-276.3c-3.1-27.9-26.7-49.5-55.4-49.5
	c-28.4,0-55.5,26.5-58.9,54L1776.4,369.2L1776.4,369.2z M2017.5,369.2c-28.7,87-110.6,149.8-207.2,149.8s-178.5-62.8-207.2-149.8
	c-7.3-22.1-11-45.1-10.9-68.3c0-120.5,97.7-218.1,218.1-218.1s218.1,97.7,218.1,218.1C2028.4,324.8,2024.6,347.7,2017.5,369.2
	L2017.5,369.2z M2268.2,369.2v141.4h-148.7v-352h-83.1c0,0,117-73.1,158.9-73.1c39.6,0,69,30.5,72.6,69.2
	c58.3-31.5,116.2-69.2,156-69.2c41.1,0,74.6,32.8,75.7,73.6v351.4h-151.5V200c0-22.9-18.5-41.4-41.4-41.4
	c-17.1,0-32.4,10.5-38.6,26.4L2268.2,369.2L2268.2,369.2z"/>
</svg>
