<?xml version="1.0" encoding="utf-8"?>
<!-- Generator: Adobe Illustrator 23.0.0, SVG Export Plug-In . SVG Version: 6.00 Build 0)  -->
<svg version="1.1" id="Calque_1" xmlns="http://www.w3.org/2000/svg" xmlns:xlink="http://www.w3.org/1999/xlink" x="0px" y="0px"
	 viewBox="0 0 2500 2500" style="enable-background:new 0 0 2500 2500;" xml:space="preserve">
<style type="text/css">
	.st0{fill-rule:evenodd;clip-rule:evenodd;}
</style>
<path class="st0" d="M898.9,1575.4l142.7-643.7H1219l-76.5,341l142.7-170.5H1480l-174,212.3l73.2,260.9h-177.6l-73.1-247l-55.8,247
	H898.9z M262.2,1251.8l125.3,323.6H558l142.7-643.7h-174l-73.1,327.1L331.8,931.7H154.3L11.7,1575.4H189
	c20.9-104.4,48.7-212.2,73.1-323.6H262.2z M815.4,1575.4l104.4-473.2H749.3l-107.9,473.2H815.4L815.4,1575.4z M756.2,997.8
	c0,13.9,3.5,66.1,97.4,66.1c80,0,111.3-48.7,111.3-87c0-24.4-20.9-69.6-100.9-69.6C794.5,907.3,756.2,956,756.2,997.8L756.2,997.8z
	 M2422.8,1095.2c-76.5-20.9-167,13.9-212.3,76.5c3.5-17.4,10.5-41.8,13.9-66.1h-174l-104.4,469.7h173.9l59.2-267.9
	c10.4-48.7,52.2-69.6,87-59.1c13.9,3.5,34.8,13.9,27.8,55.7l-59.2,271.5h173.9l76.5-361.8c17.4-80-48.7-114.8-62.6-118.3
	L2422.8,1095.2z M1834.8,1533.6c76.5-62.6,111.3-167,111.3-267.9c0-93.9-80-184.4-222.7-184.4c-264.5,0-302.7,208.8-313.1,247
	c-17.4,93.9,3.5,219.2,128.7,250.5C1622.6,1603.2,1751.3,1599.7,1834.8,1533.6L1834.8,1533.6z M1640,1258.7
	c10.4-34.8,45.2-41.8,59.2-41.8c38.2-3.5,48.7,20.9,45.2,41.8c-7,59.1-27.8,135.7-34.8,160.1c-10.4,24.4-34.8,41.8-62.6,41.8
	c-31.3,0-48.7-20.9-45.2-41.8C1605.2,1377,1629.5,1276.1,1640,1258.7z"/>
</svg>
