<?xml version="1.0" encoding="utf-8"?>
<!-- Generator: Adobe Illustrator 23.0.0, SVG Export Plug-In . SVG Version: 6.00 Build 0)  -->
<svg version="1.1" id="Calque_1" xmlns="http://www.w3.org/2000/svg" xmlns:xlink="http://www.w3.org/1999/xlink" x="0px" y="0px"
	 viewBox="0 0 2500 2500" style="enable-background:new 0 0 2500 2500;" xml:space="preserve">
<style type="text/css">
	.st0{fill-rule:evenodd;clip-rule:evenodd;}
</style>
<path class="st0" d="M2235.6,1206.5l77.5-82.7c4.5-6.1,6.7-10.3,6.7-13.9c0-6.1-5.2-8.5-21.7-8.5h-19.5v-52.2h211.5v52.2h-27.8
	c-32.1,0-38.1,4.8-82.8,61.3L2256.9,1295v80.7c0,20.7,10.4,27.9,40.3,27.9h46.3v50.4h-296.3v-50.4h46.3c29.8,0,40.3-7.3,40.3-27.9
	v-80.8l-144.3-159.7c-23.8-27.9-20.6-34-87-34v-52.2h267.9v52.2h-19.1c-19.4,0-27.6,3.6-27.6,10.9c0,6.1,6,10.9,9.7,15.8l73,79.7
	c8.7,9,19.3,10.2,29.1-1.1L2235.6,1206.5z M437.8,1049.1h64.6v145.7h-59.7c-5.3-29.1-23.5-40.5-40.1-55.7
	c-30-27.6-94.9-50.5-149.5-50.5c-70.5,0-130,21.9-130,54c0,89.3,403.1,18.2,403.1,187c0,88-86.4,137.2-241.4,137.2
	c-53.7,0-134.9-16.7-182.9-42.1c-15-8.7-21.4,8.2-24.2,29.4H11.5v-150.5h59.9c13.2,38.3,31.4,46.1,48.2,61.3
	c29.1,26.7,98.3,46.2,161.7,45.5c95.7-0.9,128.6-21.9,128.6-52.2s-32.5-37.6-137.4-54l-89-14.6C83,1274.3,9.9,1251.8,9.9,1171.7
	c0-83.2,92.5-135.5,238.8-135.5c61.6,0,113.2,8.2,162.7,36.2c13.7,8.9,26.6,10,26.4-23.5L437.8,1049.1z M1699.2,1293l1.3-161.9
	c0-21.3-11.1-28.5-42.6-28.5h-37.1v-50.4h236.1v50.2H1826c-31.6,0-42.6,7.3-42.6,28.5v326l-92.4-0.7l-299.2-283.4v205.9
	c0,20.6,11.1,28.5,42.6,28.5h41.1v49.8h-245.2v-49.8h40.6c31.6,0,42.6-7.9,42.6-28.5v-247.7c0-21.3-11.1-28.5-42.6-28.5h-40.6v-50.4
	h212L1699.2,1293L1699.2,1293z M908.4,1033.3c-188.1,0-305.9,83.2-305.9,216.7c0,131.1,116.1,213.7,300.2,213.7
	c195.5,0,309.2-81.3,309.2-220.4c0-125-122.7-209.9-303.4-209.9L908.4,1033.3z M904.1,1410.9c-104.2,0-164-60.1-164-163.9
	c0-101.4,62.5-161.5,169.2-161.5c102.4,0,162.3,61.3,162.3,165.7C1071.6,1353.2,1010.9,1410.9,904.1,1410.9L904.1,1410.9z"/>
</svg>
