<svg aria-hidden="true" style="position: absolute; width: 0; height: 0; overflow: hidden;" version="1.1" xmlns="http://www.w3.org/2000/svg" xmlns:xlink="http://www.w3.org/1999/xlink">
<symbol id="icon-airplay" viewBox="0 0 24 24">
<title>airplay</title>
<path d="M21 3q0.797 0 1.406 0.609t0.609 1.406v12q0 0.797-0.609 1.383t-1.406 0.586h-3.984v-1.969h3.984v-12h-18v12h3.984v1.969h-3.984q-0.797 0-1.406-0.586t-0.609-1.383v-12q0-0.797 0.609-1.406t1.406-0.609h18zM6 21.984l6-6 6 6h-12z"></path>
</symbol>
<symbol id="icon-bluetooth" viewBox="0 0 24 24">
<title>bluetooth</title>
<path d="M14.859 16.313l-1.875-1.922v3.797zM12.984 5.813v3.797l1.875-1.922zM17.719 7.688l-4.313 4.313 4.313 4.313-5.719 5.672h-0.984v-7.594l-4.594 4.594-1.406-1.406 5.578-5.578-5.578-5.578 1.406-1.406 4.594 4.594v-7.594h0.984z"></path>
</symbol>
<symbol id="icon-keyboard_arrow_down" viewBox="0 0 24 24">
<title>keyboard_arrow_down</title>
<path d="M7.406 8.578l4.594 4.594 4.594-4.594 1.406 1.406-6 6-6-6z"></path>
</symbol>
<symbol id="icon-dehaze" viewBox="0 0 24 24">
<title>dehaze</title>
<path d="M2.016 5.484h19.969v2.016h-19.969v-2.016zM2.016 10.5h19.969v2.016h-19.969v-2.016zM2.016 15.516h19.969v1.969h-19.969v-1.969z"></path>
</symbol>
<symbol id="icon-local_grocery_storeshopping_cart" viewBox="0 0 24 24">
<title>local_grocery_storeshopping_cart</title>
<path d="M17.016 18q0.797 0 1.383 0.609t0.586 1.406-0.586 1.383-1.383 0.586-1.406-0.586-0.609-1.383 0.609-1.406 1.406-0.609zM0.984 2.016h3.281l0.938 1.969h14.813q0.422 0 0.703 0.305t0.281 0.727q0 0.047-0.141 0.469l-3.563 6.469q-0.563 1.031-1.734 1.031h-7.453l-0.891 1.641-0.047 0.141q0 0.234 0.234 0.234h11.578v2.016h-12q-0.797 0-1.383-0.609t-0.586-1.406q0-0.469 0.234-0.938l1.359-2.484-3.609-7.594h-2.016v-1.969zM6.984 18q0.797 0 1.406 0.609t0.609 1.406-0.609 1.383-1.406 0.586-1.383-0.586-0.586-1.383 0.586-1.406 1.383-0.609z"></path>
</symbol>
<symbol id="icon-wifi" viewBox="0 0 24 24">
<title>wifi</title>
<path d="M5.016 12.984q2.906-2.859 7.008-2.859t6.961 2.859l-1.969 2.016q-0.844-0.844-2.32-1.453t-2.695-0.609-2.695 0.609-2.32 1.453zM9 17.016q1.266-1.266 3-1.266t3 1.266l-3 3zM0.984 9q4.594-4.547 11.039-4.547t10.992 4.547l-2.016 2.016q-3.75-3.703-9-3.703t-9 3.703z"></path>
</symbol>
</svg>
