<?xml version="1.0" encoding="utf-8"?>
<!-- Generator: Adobe Illustrator 23.0.0, SVG Export Plug-In . SVG Version: 6.00 Build 0)  -->
<svg version="1.1" id="Calque_1" xmlns="http://www.w3.org/2000/svg" xmlns:xlink="http://www.w3.org/1999/xlink" x="0px" y="0px"
	 viewBox="0 0 512 512" style="enable-background:new 0 0 512 512;" xml:space="preserve">
<style type="text/css">
	.st0{fill:#6E6469;}
	.st1{fill:#7D787D;}
	.st2{fill:#5A96A0;}
	.st3{fill:#4A404D;}
	.st4{fill:#FFFFFF;}
	.st5{fill:#5F555A;}
</style>
<g>
	<path class="st0" d="M167.8,83.06c1.02-0.5,2.06-0.93,3.12-1.33C169.86,82.13,168.81,82.57,167.8,83.06z"/>
	<path class="st0" d="M341.26,81.8c1,0.38,1.98,0.79,2.94,1.26C343.24,82.59,342.26,82.18,341.26,81.8z"/>
	<path class="st0" d="M476.69,150.07h-84.87c-7.36,0-13.95-4.56-16.53-11.46l-8.95-23.85H145.66l-8.95,23.85
		c-2.58,6.89-9.17,11.46-16.53,11.46H97.1H44.14h-8.83C15.81,150.07,0,165.88,0,185.38v194.21c0,19.5,15.81,35.31,35.31,35.31
		h152.28c-43.43-24.09-72.83-70.4-72.83-123.59c0-78,63.24-141.24,141.24-141.24s141.24,63.24,141.24,141.24
		c0,53.18-29.4,99.49-72.83,123.59h152.28c19.5,0,35.31-15.81,35.31-35.31V185.38C512,165.88,496.19,150.07,476.69,150.07z
		 M79.45,379.59c0,4.88-3.95,8.83-8.83,8.83s-8.83-3.95-8.83-8.83V185.38c0-4.88,3.95-8.83,8.83-8.83s8.83,3.95,8.83,8.83V379.59z
		 M450.21,273.66c-7.31,0-13.24-5.93-13.24-13.24c0-7.31,5.93-13.24,13.24-13.24c7.31,0,13.24,5.93,13.24,13.24
		C463.45,267.73,457.52,273.66,450.21,273.66z M450.21,229.52c-14.63,0-26.48-11.86-26.48-26.48c0-14.63,11.86-26.48,26.48-26.48
		c14.63,0,26.48,11.86,26.48,26.48C476.69,217.66,464.83,229.52,450.21,229.52z"/>
	<path class="st1" d="M397.24,291.31c0-78-63.24-141.24-141.24-141.24s-141.24,63.24-141.24,141.24c0,53.18,29.4,99.49,72.83,123.59
		c20.27,11.24,43.59,17.66,68.41,17.66s48.14-6.41,68.41-17.66C367.84,390.8,397.24,344.49,397.24,291.31z M256,397.24
		c-58.5,0-105.93-47.43-105.93-105.93S197.5,185.38,256,185.38s105.93,47.43,105.93,105.93S314.5,397.24,256,397.24z"/>
	<path class="st2" d="M256,185.38c-58.5,0-105.93,47.43-105.93,105.93S197.5,397.24,256,397.24s105.93-47.43,105.93-105.93
		S314.5,185.38,256,185.38z M326.62,335.45c0,14.63-11.86,26.48-26.48,26.48c-6.18,0-11.87-2.12-16.37-5.68
		c-8.52,3.65-17.91,5.68-27.77,5.68c-39,0-70.62-31.62-70.62-70.62c0-13.52,3.81-26.15,10.4-36.89c-1-2.21-1.57-4.66-1.57-7.25
		c0-9.75,7.9-17.66,17.66-17.66c2.59,0,5.04,0.57,7.25,1.57c10.74-6.59,23.37-10.4,36.89-10.4c39,0,70.62,31.62,70.62,70.62
		c0,9.86-2.03,19.24-5.68,27.77C324.5,323.58,326.62,329.27,326.62,335.45z"/>
	<path class="st3" d="M256,220.69c-13.52,0-26.15,3.81-36.89,10.4c6.13,2.77,10.41,8.92,10.41,16.09c0,9.75-7.9,17.66-17.66,17.66
		c-7.16,0-13.32-4.27-16.09-10.41c-6.59,10.74-10.4,23.37-10.4,36.89c0,39,31.62,70.62,70.62,70.62c9.86,0,19.24-2.03,27.77-5.68
		c-6.15-4.85-10.11-12.36-10.11-20.81c0-14.63,11.86-26.48,26.48-26.48c8.44,0,15.96,3.96,20.81,10.11
		c3.65-8.52,5.68-17.91,5.68-27.77C326.62,252.31,295,220.69,256,220.69z"/>
	<path class="st4" d="M300.14,308.97c-14.63,0-26.48,11.86-26.48,26.48c0,8.44,3.96,15.96,10.11,20.81
		c4.51,3.55,10.19,5.68,16.37,5.68c14.63,0,26.48-11.86,26.48-26.48c0-6.18-2.12-11.87-5.68-16.37
		C316.1,312.92,308.58,308.97,300.14,308.97z"/>
	<path class="st4" d="M211.86,264.83c9.75,0,17.66-7.9,17.66-17.66c0-7.16-4.27-13.32-10.41-16.09c-2.21-1-4.66-1.57-7.25-1.57
		c-9.75,0-17.66,7.9-17.66,17.66c0,2.59,0.57,5.04,1.57,7.25C198.54,260.55,204.7,264.83,211.86,264.83z"/>
	<path class="st5" d="M70.62,176.55c-4.88,0-8.83,3.95-8.83,8.83v194.21c0,4.88,3.95,8.83,8.83,8.83s8.83-3.95,8.83-8.83V185.38
		C79.45,180.5,75.5,176.55,70.62,176.55z"/>
	<circle class="st1" cx="450.21" cy="203.03" r="26.48"/>
	<circle class="st5" cx="450.21" cy="260.41" r="13.24"/>
	<path class="st5" d="M366.34,114.76l-4.65-12.4c-3.23-8.61-9.59-15.41-17.5-19.3c-0.96-0.47-1.94-0.88-2.94-1.26
		c-3.96-1.52-8.22-2.35-12.63-2.35l0,0H183.37l0,0c-4.34,0-8.54,0.81-12.44,2.28c-1.06,0.4-2.11,0.83-3.12,1.33
		c-7.91,3.89-14.27,10.68-17.5,19.3l-4.65,12.4l0,0H366.34L366.34,114.76z"/>
	<path class="st5" d="M97.1,150.07c0-9.75-7.9-17.66-17.66-17.66H61.79c-9.75,0-17.66,7.9-17.66,17.66l0,0H97.1L97.1,150.07z"/>
</g>
</svg>
