<?xml version="1.0" encoding="iso-8859-1"?>
<!-- Generator: Adobe Illustrator 19.0.0, SVG Export Plug-In . SVG Version: 6.00 Build 0)  -->
<svg version="1.1" id="Layer_1" xmlns="http://www.w3.org/2000/svg" xmlns:xlink="http://www.w3.org/1999/xlink" x="0px" y="0px"
	 viewBox="0 0 512 512" style="enable-background:new 0 0 512 512;" xml:space="preserve">
<g>
	<g>
		<path d="M431.966,109.901l-102.4-102.4C324.77,2.697,318.259,0,311.467,0H98.133c-14.14,0-25.6,11.46-25.6,25.6v460.8
			c0,14.14,11.46,25.6,25.6,25.6h315.733c14.14,0,25.6-11.46,25.6-25.6V128C439.467,121.207,436.77,114.697,431.966,109.901z
			 M413.867,486.4H98.133V25.6h213.333l102.4,102.4V486.4z"/>
	</g>
</g>
<g>
	<g>
		<rect x="123.733" y="51.2" width="25.6" height="93.867"/>
	</g>
</g>
<g>
	<g>
		<rect x="174.933" y="51.2" width="25.6" height="93.867"/>
	</g>
</g>
<g>
	<g>
		<rect x="226.133" y="51.2" width="25.6" height="93.867"/>
	</g>
</g>
<g>
	<g>
		<rect x="277.333" y="51.2" width="25.6" height="93.867"/>
	</g>
</g>
<g>
	<g>
		<rect x="328.533" y="93.867" width="25.6" height="51.2"/>
	</g>
</g>
<g>
</g>
<g>
</g>
<g>
</g>
<g>
</g>
<g>
</g>
<g>
</g>
<g>
</g>
<g>
</g>
<g>
</g>
<g>
</g>
<g>
</g>
<g>
</g>
<g>
</g>
<g>
</g>
<g>
</g>
</svg>
