<?xml version="1.0" encoding="iso-8859-1"?>
<!-- Generator: Adobe Illustrator 19.0.0, SVG Export Plug-In . SVG Version: 6.00 Build 0)  -->
<svg version="1.1" id="Layer_1" xmlns="http://www.w3.org/2000/svg" xmlns:xlink="http://www.w3.org/1999/xlink" x="0px" y="0px"
	 viewBox="0 0 512 512" style="enable-background:new 0 0 512 512;" xml:space="preserve">
<rect x="97.423" y="406.069" style="fill:#74798D;" width="317.793" height="17.655"/>
<g>
	<path style="fill:#5B5D6E;" d="M453.297,511.31L453.297,511.31c-4.497,1.886-9.67-0.231-11.554-4.727L305.55,181.821l16.281-6.828
		l136.191,324.764C459.908,504.253,457.792,509.426,453.297,511.31z"/>
	
		<rect x="404.898" y="420.412" transform="matrix(-0.9222 0.3867 -0.3867 -0.9222 981.6348 678.6523)" style="fill:#5B5D6E;" width="35.31" height="35.31"/>
</g>
<g>
	<path style="fill:#464655;" d="M447.782,475.333l-16.281,6.828c-4.495,1.886-9.669-0.231-11.554-4.727l-6.828-16.281
		c-1.886-4.497,0.231-9.67,4.727-11.554l16.281-6.828c4.497-1.886,9.67,0.231,11.554,4.727l6.828,16.281
		C454.393,468.276,452.277,473.449,447.782,475.333z"/>
	<path style="fill:#464655;" d="M427.298,426.489l-16.281,6.828c-4.497,1.886-9.67-0.231-11.554-4.727l-6.828-16.281
		c-1.886-4.495,0.231-9.67,4.727-11.554l16.281-6.828c4.495-1.886,9.67,0.231,11.554,4.727l6.828,16.281
		C433.911,419.431,431.795,424.604,427.298,426.489z"/>
	<path style="fill:#464655;" d="M324.98,182.5l-16.281,6.828c-4.497,1.886-9.67-0.231-11.554-4.727l-8.671-20.678l32.563-13.655
		l8.671,20.678C331.593,175.442,329.476,180.615,324.98,182.5z"/>
</g>
<g>
	<path style="fill:#5B5D6E;" d="M58.703,511.31L58.703,511.31c4.497,1.886,9.67-0.231,11.554-4.727L206.449,181.82l-16.281-6.828
		L53.977,499.756C52.092,504.253,54.208,509.426,58.703,511.31z"/>
	
		<rect x="71.757" y="420.384" transform="matrix(0.9222 0.3867 -0.3867 0.9222 176.3465 -0.4985)" style="fill:#5B5D6E;" width="35.31" height="35.31"/>
</g>
<g>
	<path style="fill:#464655;" d="M64.218,475.333l16.281,6.828c4.497,1.886,9.67-0.231,11.554-4.727l6.828-16.281
		c1.886-4.497-0.231-9.67-4.727-11.554l-16.281-6.828c-4.497-1.886-9.67,0.231-11.554,4.727l-6.828,16.281
		C57.607,468.276,59.722,473.449,64.218,475.333z"/>
	<path style="fill:#464655;" d="M84.702,426.489l16.281,6.828c4.497,1.886,9.67-0.231,11.554-4.727l6.828-16.281
		c1.886-4.495-0.231-9.67-4.727-11.554l-16.281-6.828c-4.497-1.886-9.67,0.231-11.554,4.727l-6.828,16.281
		C78.089,419.431,80.205,424.604,84.702,426.489z"/>
	<path style="fill:#464655;" d="M187.02,182.5l16.281,6.828c4.497,1.886,9.67-0.231,11.554-4.727l8.671-20.678l-32.563-13.655
		l-8.671,20.678C180.407,175.442,182.524,180.615,187.02,182.5z"/>
</g>
<g>
	<path style="fill:#5B5D6E;" d="M325.839,167.724H186.805c-5.485,0-9.931-4.446-9.931-9.931v-15.448
		c0-5.485,4.446-9.931,9.931-9.931h139.034c5.485,0,9.931,4.446,9.931,9.931v15.448C335.77,163.278,331.325,167.724,325.839,167.724
		z"/>
	<rect x="238.665" y="79.448" style="fill:#5B5D6E;" width="35.31" height="61.793"/>
	<path style="fill:#5B5D6E;" d="M256.322,512L256.322,512c-4.875,0-8.828-3.953-8.828-8.828V185.379h17.655v317.793
		C265.15,508.047,261.197,512,256.322,512z"/>
	<rect x="238.665" y="423.724" style="fill:#5B5D6E;" width="35.31" height="35.31"/>
</g>
<g>
	<path style="fill:#464655;" d="M265.15,485.517h-17.655c-4.875,0-8.828-3.953-8.828-8.828v-17.655c0-4.875,3.953-8.828,8.828-8.828
		h17.655c4.875,0,8.828,3.953,8.828,8.828v17.655C273.977,481.565,270.025,485.517,265.15,485.517z"/>
	<path style="fill:#464655;" d="M265.15,432.552h-17.655c-4.875,0-8.828-3.953-8.828-8.828v-17.655c0-4.875,3.953-8.828,8.828-8.828
		h17.655c4.875,0,8.828,3.953,8.828,8.828v17.655C273.977,428.599,270.025,432.552,265.15,432.552z"/>
	<path style="fill:#464655;" d="M265.15,194.207h-17.655c-4.875,0-8.828-3.953-8.828-8.828v-52.966c0-4.875,3.953-8.828,8.828-8.828
		h17.655c4.875,0,8.828,3.953,8.828,8.828v52.966C273.977,190.254,270.025,194.207,265.15,194.207z"/>
</g>
<polygon style="fill:#5B5D6E;" points="291.633,70.621 221.012,70.621 212.184,8.828 300.46,8.828 "/>
<path style="fill:#464655;" d="M256.322,35.31c-19.501,0-35.31,15.809-35.31,35.31c0,1.448,0.097,2.871,0.267,4.273l-81.494,31.502
	l6.366,16.468l81.579-31.534c6.417,8.844,16.829,14.602,28.593,14.602c19.501,0,35.31-15.809,35.31-35.31
	S275.823,35.31,256.322,35.31z"/>
<path style="fill:#5B5D6E;" d="M174.035,121.548l-49.402,19.097c-4.547,1.758-9.658-0.503-11.416-5.05l-6.366-16.468
	c-1.758-4.547,0.503-9.658,5.05-11.416l49.402-19.097c4.547-1.758,9.658,0.503,11.416,5.05l6.366,16.468
	C180.843,114.679,178.582,119.79,174.035,121.548z"/>
<path style="fill:#464655;" d="M291.633,17.655h-70.621c-4.875,0-8.828-3.953-8.828-8.828l0,0c0-4.875,3.953-8.828,8.828-8.828
	h70.621c4.875,0,8.828,3.953,8.828,8.828l0,0C300.46,13.703,296.508,17.655,291.633,17.655z"/>
<g>
</g>
<g>
</g>
<g>
</g>
<g>
</g>
<g>
</g>
<g>
</g>
<g>
</g>
<g>
</g>
<g>
</g>
<g>
</g>
<g>
</g>
<g>
</g>
<g>
</g>
<g>
</g>
<g>
</g>
</svg>
